<svg width="100" height="105" viewBox="0 0 100 105" fill="none" xmlns="http://www.w3.org/2000/svg">
<rect width="100" height="100" rx="13" fill="url(#paint0_linear_95_7)"/>
<mask id="path-2-outside-1_95_7" maskUnits="userSpaceOnUse" x="23" y="25" width="57" height="56" fill="black">
<rect fill="white" x="23" y="25" width="57" height="56"/>
<path d="M73.46 28.2C74.7 28.44 75.62 28.86 76.22 29.46C76.86 30.06 77.18 30.76 77.18 31.56C77.18 32.88 76.8 33.84 76.04 34.44C75.32 35.04 74.16 35.28 72.56 35.16C68.96 34.88 66.14 34.7 64.1 34.62C62.1 34.5 59.46 34.42 56.18 34.38C54.7 41.74 53.34 49.14 52.1 56.58C51.66 59.3 51.2 62.46 50.72 66.06C50.24 69.62 49.92 72.5 49.76 74.7C49.68 75.86 49.2 76.76 48.32 77.4C47.44 78 46.38 78.3 45.14 78.3C43.82 78.3 42.8 77.98 42.08 77.34C41.36 76.7 41 75.86 41 74.82C41 73.86 41.14 72.28 41.42 70.08C41.74 67.84 42.1 65.5 42.5 63.06C42.94 60.62 43.28 58.5 43.52 56.7C43.96 53.66 44.46 50.64 45.02 47.64C45.58 44.64 46.14 41.8 46.7 39.12C46.82 38.52 46.96 37.84 47.12 37.08C47.28 36.28 47.46 35.4 47.66 34.44C43.74 34.56 40.66 34.88 38.42 35.4C36.18 35.92 34.58 36.66 33.62 37.62C32.7 38.54 32.24 39.74 32.24 41.22C32.24 42.58 32.64 43.88 33.44 45.12C33.6 45.4 33.68 45.7 33.68 46.02C33.68 46.78 33.22 47.5 32.3 48.18C31.42 48.82 30.5 49.14 29.54 49.14C28.86 49.14 28.3 48.94 27.86 48.54C27.06 47.86 26.4 46.9 25.88 45.66C25.36 44.38 25.1 42.94 25.1 41.34C25.1 37.94 26.2 35.22 28.4 33.18C30.64 31.1 34.02 29.58 38.54 28.62C43.1 27.66 48.94 27.18 56.06 27.18C60.46 27.18 63.96 27.26 66.56 27.42C69.2 27.58 71.5 27.84 73.46 28.2Z"/>
</mask>
<path d="M73.46 28.2C74.7 28.44 75.62 28.86 76.22 29.46C76.86 30.06 77.18 30.76 77.18 31.56C77.18 32.88 76.8 33.84 76.04 34.44C75.32 35.04 74.16 35.28 72.56 35.16C68.96 34.88 66.14 34.7 64.1 34.62C62.1 34.5 59.46 34.42 56.18 34.38C54.7 41.74 53.34 49.14 52.1 56.58C51.66 59.3 51.2 62.46 50.72 66.06C50.24 69.62 49.92 72.5 49.76 74.7C49.68 75.86 49.2 76.76 48.32 77.4C47.44 78 46.38 78.3 45.14 78.3C43.82 78.3 42.8 77.98 42.08 77.34C41.36 76.7 41 75.86 41 74.82C41 73.86 41.14 72.28 41.42 70.08C41.74 67.84 42.1 65.5 42.5 63.06C42.94 60.62 43.28 58.5 43.52 56.7C43.96 53.66 44.46 50.64 45.02 47.64C45.58 44.64 46.14 41.8 46.7 39.12C46.82 38.52 46.96 37.84 47.12 37.08C47.28 36.28 47.46 35.4 47.66 34.44C43.74 34.56 40.66 34.88 38.42 35.4C36.18 35.92 34.58 36.66 33.62 37.62C32.7 38.54 32.24 39.74 32.24 41.22C32.24 42.58 32.64 43.88 33.44 45.12C33.6 45.4 33.68 45.7 33.68 46.02C33.68 46.78 33.22 47.5 32.3 48.18C31.42 48.82 30.5 49.14 29.54 49.14C28.86 49.14 28.3 48.94 27.86 48.54C27.06 47.86 26.4 46.9 25.88 45.66C25.36 44.38 25.1 42.94 25.1 41.34C25.1 37.94 26.2 35.22 28.4 33.18C30.64 31.1 34.02 29.58 38.54 28.62C43.1 27.66 48.94 27.18 56.06 27.18C60.46 27.18 63.96 27.26 66.56 27.42C69.2 27.58 71.5 27.84 73.46 28.2Z" fill="white"/>
<path d="M73.46 28.2L73.84 26.2364L73.8307 26.2346L73.8213 26.2329L73.46 28.2ZM76.22 29.46L74.8058 30.8742L74.8286 30.897L74.8521 30.9191L76.22 29.46ZM76.04 34.44L74.8007 32.8702L74.78 32.8866L74.7596 32.9036L76.04 34.44ZM72.56 35.16L72.4049 37.154L72.4104 37.1544L72.56 35.16ZM64.1 34.62L63.9802 36.6164L64.0009 36.6176L64.0216 36.6185L64.1 34.62ZM56.18 34.38L56.2044 32.3801L54.5462 32.3599L54.2193 33.9857L56.18 34.38ZM52.1 56.58L50.1272 56.2512L50.1257 56.2606L52.1 56.58ZM50.72 66.06L52.7021 66.3272L52.7025 66.3243L50.72 66.06ZM49.76 74.7L47.7653 74.5549L47.7647 74.5624L49.76 74.7ZM48.32 77.4L49.4467 79.0525L49.4718 79.0353L49.4963 79.0175L48.32 77.4ZM42.08 77.34L43.4087 75.8452L43.4087 75.8452L42.08 77.34ZM41.42 70.08L39.4401 69.7972L39.4379 69.8123L39.436 69.8275L41.42 70.08ZM42.5 63.06L40.5317 62.7051L40.5289 62.7207L40.5263 62.7364L42.5 63.06ZM43.52 56.7L41.5406 56.4135L41.539 56.4246L41.5375 56.4357L43.52 56.7ZM45.02 47.64L43.054 47.273L43.054 47.273L45.02 47.64ZM46.7 39.12L48.6577 39.5291L48.6595 39.5207L48.6612 39.5122L46.7 39.12ZM47.12 37.08L49.0771 37.492L49.0792 37.4821L49.0812 37.4722L47.12 37.08ZM47.66 34.44L49.618 34.8479L50.1356 32.3633L47.5988 32.4409L47.66 34.44ZM38.42 35.4L37.9677 33.4518L37.9677 33.4518L38.42 35.4ZM33.62 37.62L32.2058 36.2058L32.2058 36.2058L33.62 37.62ZM33.44 45.12L35.1765 44.1277L35.1498 44.081L35.1206 44.0357L33.44 45.12ZM32.3 48.18L33.4763 49.7975L33.4826 49.7929L33.4888 49.7884L32.3 48.18ZM27.86 48.54L29.2053 47.0601L29.1807 47.0377L29.1553 47.0161L27.86 48.54ZM25.88 45.66L24.0271 46.4128L24.0313 46.4231L24.0356 46.4335L25.88 45.66ZM28.4 33.18L29.7599 34.6465L29.7609 34.6456L28.4 33.18ZM38.54 28.62L38.128 26.6629L38.1245 26.6636L38.54 28.62ZM66.56 27.42L66.4372 29.4162L66.439 29.4163L66.56 27.42ZM73.08 30.1636C74.1085 30.3626 74.5947 30.6631 74.8058 30.8742L77.6342 28.0458C76.6453 27.0569 75.2915 26.5174 73.84 26.2364L73.08 30.1636ZM74.8521 30.9191C75.1321 31.1816 75.18 31.3695 75.18 31.56H79.18C79.18 30.1505 78.5879 28.9384 77.5879 28.0009L74.8521 30.9191ZM75.18 31.56C75.18 32.5049 74.9208 32.7754 74.8007 32.8702L77.2793 36.0098C78.6792 34.9046 79.18 33.2551 79.18 31.56H75.18ZM74.7596 32.9036C74.6418 33.0017 74.1346 33.2725 72.7096 33.1656L72.4104 37.1544C74.1854 37.2875 75.9982 37.0782 77.3204 35.9764L74.7596 32.9036ZM72.7151 33.166C69.1057 32.8853 66.2562 32.703 64.1784 32.6215L64.0216 36.6185C66.0238 36.697 68.8143 36.8747 72.4049 37.154L72.7151 33.166ZM64.2198 32.6236C62.1745 32.5009 59.499 32.4203 56.2044 32.3801L56.1556 36.3798C59.421 36.4197 62.0255 36.4991 63.9802 36.6164L64.2198 32.6236ZM54.2193 33.9857C52.7349 41.3676 51.3708 48.7894 50.1272 56.2512L54.0728 56.9088C55.3092 49.4906 56.6651 42.1124 58.1408 34.7743L54.2193 33.9857ZM50.1257 56.2606C49.6819 59.0036 49.2193 62.1827 48.7375 65.7957L52.7025 66.3243C53.1807 62.7373 53.6381 59.5964 54.0743 56.8994L50.1257 56.2606ZM48.7379 65.7928C48.2554 69.3716 47.9295 72.2969 47.7653 74.5549L51.7547 74.8451C51.9105 72.7031 52.2246 69.8684 52.7021 66.3272L48.7379 65.7928ZM47.7647 74.5624C47.7223 75.1784 47.5091 75.5168 47.1437 75.7825L49.4963 79.0175C50.8909 78.0032 51.6377 76.5416 51.7553 74.8376L47.7647 74.5624ZM47.1933 75.7475C46.6973 76.0857 46.0458 76.3 45.14 76.3V80.3C46.7142 80.3 48.1827 79.9143 49.4467 79.0525L47.1933 75.7475ZM45.14 76.3C44.1275 76.3 43.6461 76.0562 43.4087 75.8452L40.7513 78.8348C41.9539 79.9038 43.5125 80.3 45.14 80.3V76.3ZM43.4087 75.8452C43.1525 75.6175 43 75.3399 43 74.82H39C39 76.3801 39.5675 77.7825 40.7513 78.8348L43.4087 75.8452ZM43 74.82C43 73.9982 43.1245 72.5284 43.404 70.3325L39.436 69.8275C39.1555 72.0316 39 73.7218 39 74.82H43ZM43.3999 70.3628C43.7178 68.1376 44.0757 65.8112 44.4737 63.3835L40.5263 62.7364C40.1243 65.1888 39.7622 67.5424 39.4401 69.7972L43.3999 70.3628ZM44.4683 63.4149C44.9119 60.9549 45.2573 58.8033 45.5025 56.9643L41.5375 56.4357C41.3027 58.1967 40.9681 60.2851 40.5317 62.7051L44.4683 63.4149ZM45.4994 56.9865C45.9355 53.9732 46.4311 50.9801 46.986 48.007L43.054 47.273C42.4889 50.2999 41.9845 53.3468 41.5406 56.4135L45.4994 56.9865ZM46.986 48.007C47.5437 45.0195 48.101 42.1936 48.6577 39.5291L44.7423 38.7109C44.179 41.4064 43.6163 44.2605 43.054 47.273L46.986 48.007ZM48.6612 39.5122C48.7795 38.9203 48.9181 38.2471 49.0771 37.492L45.1629 36.668C45.0019 37.4329 44.8605 38.1197 44.7388 38.7278L48.6612 39.5122ZM49.0812 37.4722C49.2399 36.6784 49.4188 35.8037 49.618 34.8479L45.702 34.0321C45.5012 34.9963 45.3201 35.8816 45.1588 36.6878L49.0812 37.4722ZM47.5988 32.4409C43.6253 32.5626 40.3947 32.8884 37.9677 33.4518L38.8723 37.3482C40.9253 36.8716 43.8547 36.5574 47.7212 36.4391L47.5988 32.4409ZM37.9677 33.4518C35.5875 34.0043 33.5558 34.8558 32.2058 36.2058L35.0342 39.0342C35.6042 38.4642 36.7725 37.8356 38.8723 37.3482L37.9677 33.4518ZM32.2058 36.2058C30.8581 37.5535 30.24 39.2889 30.24 41.22H34.24C34.24 40.1911 34.5419 39.5265 35.0342 39.0342L32.2058 36.2058ZM30.24 41.22C30.24 42.9973 30.7694 44.6697 31.7594 46.2043L35.1206 44.0357C34.5106 43.0903 34.24 42.1627 34.24 41.22H30.24ZM31.7035 46.1123C31.7012 46.1082 31.6937 46.0934 31.6875 46.0703C31.6813 46.0471 31.68 46.0286 31.68 46.02H35.68C35.68 45.3491 35.5078 44.7074 35.1765 44.1277L31.7035 46.1123ZM31.68 46.02C31.68 45.9723 31.7005 45.9736 31.6496 46.0532C31.5875 46.1504 31.4372 46.3307 31.1112 46.5716L33.4888 49.7884C34.6515 48.929 35.68 47.6863 35.68 46.02H31.68ZM31.1237 46.5625C30.5379 46.9885 30.0221 47.14 29.54 47.14V51.14C30.9779 51.14 32.3021 50.6515 33.4763 49.7975L31.1237 46.5625ZM29.54 47.14C29.2811 47.14 29.2243 47.0773 29.2053 47.0601L26.5147 50.0199C27.3757 50.8027 28.4389 51.14 29.54 51.14V47.14ZM29.1553 47.0161C28.6524 46.5886 28.1559 45.9156 27.7244 44.8865L24.0356 46.4335C24.6441 47.8844 25.4676 49.1314 26.5647 50.0639L29.1553 47.0161ZM27.7329 44.9072C27.3242 43.901 27.1 42.7222 27.1 41.34H23.1C23.1 43.1577 23.3958 44.859 24.0271 46.4128L27.7329 44.9072ZM27.1 41.34C27.1 38.4149 28.0244 36.2558 29.7599 34.6465L27.0401 31.7135C24.3756 34.1842 23.1 37.4651 23.1 41.34H27.1ZM29.7609 34.6456C31.6336 32.9066 34.6217 31.4968 38.9555 30.5764L38.1245 26.6636C33.4183 27.6632 29.6464 29.2934 27.0391 31.7144L29.7609 34.6456ZM38.952 30.5771C43.3255 29.6564 49.0141 29.18 56.06 29.18V25.18C48.8659 25.18 42.8745 25.6636 38.128 26.6629L38.952 30.5771ZM56.06 29.18C60.4427 29.18 63.8963 29.2599 66.4372 29.4162L66.6828 25.4238C64.0237 25.2601 60.4773 25.18 56.06 25.18V29.18ZM66.439 29.4163C69.0227 29.5729 71.239 29.8255 73.0987 30.1671L73.8213 26.2329C71.761 25.8545 69.3773 25.5871 66.681 25.4237L66.439 29.4163Z" fill="white" mask="url(#path-2-outside-1_95_7)"/>
<defs>
<linearGradient id="paint0_linear_95_7" x1="120" y1="-9" x2="-3.99999" y2="109" gradientUnits="userSpaceOnUse">
<stop stop-color="#BF88F4"/>
<stop offset="0.93" stop-color="#E384BE"/>
</linearGradient>
</defs>
</svg>
